# xmcd
#
# Track frame offsets: 
#        150
#        13209
#        27677
#        37889
#        53107
#        71847
#        91005
#        103910
#        116851
#        128748
#        151606
#        169175
#        193521
#        215132
#        230851
#        244199
#
# Disc length: 3557 seconds
#
# Revision: 3
# Processed by: cddbd v1.5.2PL0 Copyright (c) Steve Scherf et al.
# Submitted via: ExactAudioCopy v1.0b4
#
DISCID=e50de310
DTITLE=Fleetwood Mac - The Essential [CD 1 of 2)
DYEAR=2007
DGENRE=Blues
TTITLE0=Black Magic Woman
TTITLE1=Albatross
TTITLE2=Long Grey Mare
TTITLE3=No Place To Go
TTITLE4=Merry Go Round
TTITLE5=Watch Out
TTITLE6=My Baby's Good To Me
TTITLE7=Looking For Somebody
TTITLE8=Coming Home
TTITLE9=Worlds In A Tangle
TTITLE10=If You Be My Baby
TTITLE11=Worried Dream
TTITLE12=Trying So Hard To Forget
TTITLE13=Need Your Love Tonight
TTITLE14=I Loved Another Woman
TTITLE15=Love That Burns
EXTD=
EXTT0=
EXTT1=
EXTT2=
EXTT3=
EXTT4=
EXTT5=
EXTT6=
EXTT7=
EXTT8=
EXTT9=
EXTT10=
EXTT11=
EXTT12=
EXTT13=
EXTT14=
EXTT15=
PLAYORDER=
